<svg xmlns="http://www.w3.org/2000/svg" viewBox="0 0 503 250"><defs><style>.cls-1{fill:#fff;}</style></defs><title>Artboard 3mdpi</title><g id="Layer_5" data-name="Layer 5"><g id="Page-1"><g id="logo-superander"><path id="Shape" class="cls-1" d="M168.35,163.32c0,3.1,2.37,4.79,5.3,3.79L494.18,57.23a8.36,8.36,0,0,0,5.3-7.42V2.23c0-3.09-2.37-4.77-5.28-3.75L173.63,111a8.46,8.46,0,0,0-5.28,7.46Z"/><path id="Shape-2" data-name="Shape" class="cls-1" d="M381.2,189.72a6.68,6.68,0,0,0,5.55-6.41V117.39c0-3.1-2.38-4.79-5.31-3.79L1.63,243.63c-2.93,1-2.83,1.46.24,1Z"/><path id="Triangle" class="cls-1" d="M450.27,187.18c1.59,2.65,4.17,2.65,5.77,0l42.76-71.25c1.59-2.66.38-4.81-2.72-4.81H410.22c-3.09,0-4.31,2.15-2.71,4.81Z"/></g></g></g></svg>