<?xml version="1.0" encoding="UTF-8"?>
<svg width="1250px" height="617px" viewBox="0 0 1250 617" version="1.1" xmlns="http://www.w3.org/2000/svg" xmlns:xlink="http://www.w3.org/1999/xlink">
    <!-- Generator: Sketch 43.2 (39069) - http://www.bohemiancoding.com/sketch -->
    <title>logo-superander</title>
    <desc>Created with Sketch.</desc>
    <defs></defs>
    <g id="Page-1" stroke="none" stroke-width="1" fill="none" fill-rule="evenodd">
        <g id="logo-superander" transform="translate(-96.000000, -204.000000)" fill="#231F20">
            <g transform="translate(89.000000, 201.000000)">
                <path d="M429.703016,416.394015 C429.703016,424.122643 435.625284,428.357826 442.946511,425.848166 L1243.61283,151.385917 C1250.92701,148.878672 1256.85633,140.583329 1256.85633,132.849051 L1256.85633,13.9970973 C1256.85633,6.26671394 1250.93406,2.07840994 1243.65481,4.63305264 L442.904539,285.655047 C435.613539,288.213811 429.703016,296.557193 429.703016,304.282018 L429.703016,416.394015 Z" id="Shape" fill-rule="nonzero"></path>
                <path d="M961.397089,482.334768 C969.049887,481.226597 975.253705,474.054617 975.253705,466.336262 L975.253705,301.65192 C975.253705,293.92436 969.325533,289.689521 961.999217,292.19778 L13.2544879,617.012897 C5.93423638,619.519081 6.19590459,620.65354 13.8566162,619.544224 L961.397089,482.334768 Z" id="Shape" fill-rule="nonzero"></path>
                <path d="M1133.92161,290.983938 C1137.90322,284.349679 1144.358,284.348516 1148.34032,290.983938 L1255.15395,468.95916 C1259.13557,475.593419 1256.09534,480.971549 1248.36805,480.971549 L1033.89388,480.971549 C1026.16451,480.971549 1023.12566,475.594582 1027.10798,468.95916 L1133.92161,290.983938 Z" id="Triangle" transform="translate(1141.131721, 383.485775) scale(1, -1) translate(-1141.131721, -383.485775) "></path>
            </g>
        </g>
    </g>
</svg>