<svg xmlns="http://www.w3.org/2000/svg" viewBox="0 0 1466 638"><defs><style>.cls-1{fill:#fff;}</style></defs><title>logo-superander-italic</title><g id="parche-horizontal-inverted"><g id="vertical-inverted"><path class="cls-1" d="M253.08,178.33c41.49,0,63.52,14.87,63.52,43.48,0,41.49-26,71.53-94.13,71.53H44.23l46.63-49.21H235.92c16,0,22.89-5.15,22.89-16.31,0-7.72-6-11.44-18-11.44H136.35c-43.48,0-62.94-18.31-62.94-46.06,0-38.91,26.61-68.38,93.56-68.38H333.19l-46.92,49.78H153.52c-16,0-22.89,4.29-22.89,15.73,0,7.73,6,10.88,18.31,10.88Z"/><path class="cls-1" d="M602.7,209.8c-10.3,57.79-54.64,86.69-134.46,86.69-82.12,0-118.45-22.89-118.45-68.67a100.28,100.28,0,0,1,1.72-18l19.16-107.86H429.9L410.44,209.8a75,75,0,0,0-.86,10.58c0,20,14.88,26.9,67.24,26.9,45.77,0,61.51-10.59,66.37-37.48l19.17-107.86h59.51Z"/><path class="cls-1" d="M797.25,244.42H697.12l-8.59,48.92H629.6l17.16-97.85h164.8c20.6,0,33.19-10.58,33.19-25.46,0-11.16-8.87-18.31-25.47-18.31H654.49l48.06-49.78H822.72c53.21,0,82.39,24.89,82.39,61.51C905.11,210.94,863.63,244.42,797.25,244.42Z"/><path class="cls-1" d="M1152.59,244.13l-46.92,49.21H921.42l34.05-191.4h221.44l-47.21,49.78H1005.82l-4,22.89h151.34L1112,218.09H994.09l-4.58,26Z"/><path class="cls-1" d="M1444.13,293.34h-79.25l-33.76-50.64h-91l-8.87,50.64h-59.22l17.16-97.85h166.51c19.74,0,36.91-9.44,36.91-24.89,0-12.59-10.87-18.88-29.18-18.88H1196.94l47.49-49.78h123c40.06,0,87.55,12.3,87.55,58.08,0,34.61-24.89,63.8-61.8,70.95,5.44,4.86,11.45,11.73,22,25.18Z"/><path class="cls-1" d="M455.67,11.63c-6,0-10.91,1-10.91,2.16l-4.67,34.55c0,1.19,4.91,2.16,10.91,2.16h942l38.44-38.87Z"/><path class="cls-1" d="M1349.1,347.18l-44.63,49.21h-47.78c-11.73,0-24.89,0-34-.58,4,6.87,10,18.6,14.59,27.76l25.47,50.63,112.15-127h70.09L1291.59,520.27c-10,11.16-23.46,21.45-42,21.45-17.74,0-27.76-9.44-34-21.45l-89-173.09Z"/><path class="cls-1" d="M925.38,354.33l98.71,105.28,19.74-112.43h53.78L1069.86,506c-4.29,25.47-21.17,35.76-38.91,35.76-7.15,0-14.3-1.71-22-10.29l-98.7-105.29-20,112.44H836.4l28.33-158.5C869.3,354.61,886.18,344,903.35,344,911.36,344,917.37,345.75,925.38,354.33Z"/><path class="cls-1" d="M698.5,347.18H826.68L805.5,466.48H746.28l12.3-70.09H689.92c-36.34,0-65.23,21.17-65.23,51.78,0,23.46,20,40.63,48.92,40.63H801.79l-46.64,49.78H664.74c-60.36,0-100.13-33.19-100.13-81.25C564.61,395.81,625.26,347.18,698.5,347.18Z"/><path class="cls-1" d="M313.41,396.39l46.92-49.21H544.58l-34.05,191.4H289.09L336.3,488.8H460.18l4-22.89H312.84L354,422.42H471.91l4.58-26Z"/><path class="cls-1" d="M21.87,347.18h79.25l33.76,50.64h91l8.87-50.64H294L276.79,445H110.28c-19.74,0-36.91,9.44-36.91,24.9,0,12.58,10.87,18.88,29.18,18.88H269.06l-47.49,49.78h-123C58.49,538.58,11,526.28,11,480.5c0-34.62,24.89-63.8,61.8-70.95-5.44-4.87-11.45-11.73-22-25.18Z"/><path class="cls-1" d="M290.05,587.5h943.06a2.14,2.14,0,0,1,2.12,2.16l-30.61,34.55a2.15,2.15,0,0,1-2.12,2.16H259a2.15,2.15,0,0,1-2.12-2.16l31-34.55A2.15,2.15,0,0,1,290.05,587.5Z"/></g></g></svg>