<svg xmlns="http://www.w3.org/2000/svg" viewBox="0 0 900 900"><defs><style>.cls-1,.cls-2{stroke:#1e1e1e;stroke-miterlimit:10;stroke-width:9px;}.cls-2{fill:none;}.cls-3{fill:#fff;}</style></defs><title>logo-superander-fibonacci</title><g id="token-light"><circle class="cls-1" cx="450" cy="450" r="432.5"/><circle class="cls-2" cx="450" cy="450" r="299.5"/><path class="cls-3" d="M210.38,165.35c10.34-10.06,19.44-11.7,26.38-4.56,10.07,10.34,10.86,24.15-6.12,40.66L186.2,244.69l-.31-23.58,36.17-35.19c4-3.88,4.46-6.83,1.75-9.62-1.87-1.92-4.27-1.39-7.27,1.52l-26,25.33c-10.84,10.55-20.13,10.71-26.86,3.79-9.44-9.7-10-23.51,6.74-39.75l41.44-40.32.38,23.8-33.1,32.2c-4,3.88-4.67,6.62-1.89,9.47,1.87,1.93,4.13,1.26,7.2-1.73Z"/><path class="cls-3" d="M277.68,166.43l5.85-22.36,14.74-7.69c3.62-1.88,7.68-4,10.59-5.3-2.33-1.47-6.08-4.12-9-6.21l-16-11.52-14.16,57.22-21.62,11.27,19.46-78c1.29-5.06,3.78-10.4,9.52-13.39,5.47-2.85,10.08-1.55,13.95,1.14l55.29,39.08Z"/><path class="cls-3" d="M410.57,118.1,370.28,88.16l.18,39.71-18.41,3.32-.3-56.08c-.11-9,5-13.55,11.11-14.64A9.47,9.47,0,0,1,371,62.63l40.29,29.95-.09-39.73,18.42-3.32.09,56c0,9-5.12,13.67-11,14.73C416,120.76,413.85,120.55,410.57,118.1Z"/><path class="cls-3" d="M484.84,120.77l-44.38-4.27,11.31-40.61,20.51,2-6.6,23.86L489.45,104c12.58,1.21,23.3-5.16,24.32-15.76.78-8.12-5.58-14.73-15.59-15.7L453.8,68.29l17.81-15.68,31.3,3c20.91,2,33.57,14.83,32,31.48C532.83,108.4,510.2,123.21,484.84,120.77Z"/><path class="cls-3" d="M614.6,139.94,593.29,150.2l-60-22.6,34.56-58.13L640,96.63l-21.47,10.42-40.33-15.2-4.11,7,49.27,18.57-18.75,9.1L566.2,112l-4.68,7.91Z"/><path class="cls-3" d="M686.69,213.21l-22.18-16.38,1-21.15-25.45-18.81-13,12.34L610.57,157l25-23.82,46.58,34.42c5.53,4.09,12.28,5,15.47.67,2.61-3.52.87-7.53-4.26-11.31l-46.58-34.43,23.58-4.11,34.42,25.44c11.2,8.28,22,21.54,12.48,34.35-7.16,9.68-20.15,12.7-32,7.07a68.81,68.81,0,0,1,1,11.59Z"/><path class="cls-3" d="M751.78,191.12l16,18.4-58,34.78-13.53-15.55,42.86-25.81-10.66-12.23Z"/><path class="cls-3" d="M689.52,734.49c-10.35,10.06-19.45,11.7-26.39,4.57-10.06-10.35-10.86-24.15,6.12-40.67l44.44-43.24.31,23.59-36.16,35.18c-4,3.89-4.46,6.84-1.76,9.62,1.88,1.92,4.28,1.39,7.28-1.52l26-25.33c10.84-10.55,20.14-10.7,26.87-3.78,9.44,9.7,10,23.5-6.74,39.74L688.07,773l-.37-23.79L720.8,717c4-3.89,4.66-6.63,1.89-9.48-1.88-1.93-4.14-1.25-7.21,1.73Z"/><path class="cls-3" d="M622.21,733.42l-5.85,22.36-14.74,7.68c-3.62,1.89-7.67,4-10.59,5.3,2.34,1.47,6.08,4.13,9,6.21l16,11.53,14.17-57.22L651.78,718l-19.46,78.06c-1.3,5.05-3.79,10.39-9.52,13.38-5.48,2.85-10.08,1.55-14-1.14l-55.28-39.08Z"/><path class="cls-3" d="M489.32,781.74l40.3,30L529.43,772l18.41-3.32.31,56.07c.1,9-5,13.55-11.11,14.65a9.48,9.48,0,0,1-8.18-2.17l-40.29-30,.08,39.73-18.41,3.32-.09-56c0-9,5.12-13.67,11-14.73C483.89,779.08,486.05,779.3,489.32,781.74Z"/><path class="cls-3" d="M415.06,779.07l44.38,4.28L448.13,824l-20.51-2,6.6-23.86-23.78-2.29c-12.58-1.22-23.29,5.15-24.31,15.75-.78,8.13,5.58,14.74,15.58,15.7l44.39,4.27-17.81,15.69-31.31-3c-20.9-2-33.56-14.83-32-31.47C367.07,791.45,389.69,776.63,415.06,779.07Z"/><path class="cls-3" d="M285.29,759.91l21.31-10.27,60,22.6L332,830.37l-72.09-27.16,21.48-10.41L321.73,808l4.12-7-49.27-18.56,18.74-9.1,38.37,14.45,4.69-7.91Z"/><path class="cls-3" d="M213.21,686.63,235.38,703l-1,21.14L259.81,743l12.95-12.33,16.57,12.24-25,23.83-46.59-34.43c-5.52-4.08-12.27-5-15.47-.67-2.6,3.53-.86,7.53,4.26,11.32l46.58,34.43-23.57,4.1L195.09,756c-11.21-8.28-22-21.54-12.48-34.35,7.15-9.68,20.15-12.7,31.95-7.07a70.4,70.4,0,0,1-.95-11.6Z"/><path class="cls-3" d="M148.12,708.72l-16-18.39,58-34.78,13.52,15.54L160.79,696.9l10.65,12.24Z"/><g id="logo-superander-fibonacci"><path id="Shape" class="cls-3" d="M378.83,481.52a3.29,3.29,0,0,0,4.65,3.32l281.14-86a7.34,7.34,0,0,0,4.65-6.51V350.55a3.26,3.26,0,0,0-4.63-3.29L383.46,435.61a7.41,7.41,0,0,0-4.63,6.54Z"/><path id="Shape-2" data-name="Shape" class="cls-3" d="M561.17,515a5.82,5.82,0,0,0,4.8-5.62V451.56c0-2.72-2.05-4.2-4.59-3.32L232.57,552c-2.54.88-2.44,1.28.21.89Z"/><path id="Triangle" class="cls-3" d="M625.39,513.66c1.37,2.29,3.6,2.29,5,0l36.8-61.32c1.37-2.29.33-4.14-2.34-4.14H590.93c-2.67,0-3.71,1.85-2.34,4.14Z"/></g></g></svg>