<svg xmlns="http://www.w3.org/2000/svg" viewBox="0 0 900 900"><defs><style>.cls-1{fill:#231f20;stroke-width:21px;}.cls-1,.cls-2{stroke:#000;stroke-miterlimit:10;}.cls-2{fill:none;stroke-width:9px;}.cls-3{font-size:99.52px;font-family:EthnocentricRg-Italic, Ethnocentric;font-style:italic;}.cls-3,.cls-4{fill:#fff;}</style></defs><title>Artboard 14mdpi</title><g id="token-light"><circle class="cls-1" cx="450" cy="450" r="432.5"/><circle class="cls-2" cx="450" cy="450" r="299.5"/><text class="cls-3" transform="translate(184.49 246.36) rotate(-44.21)">S</text><text class="cls-3" transform="translate(247.15 182.35) rotate(-27.54)">A</text><text class="cls-3" transform="translate(346.17 132.25) rotate(-10.22)">N</text><text class="cls-3" transform="translate(434.22 115.9) rotate(5.5)">D</text><text class="cls-3" transform="matrix(0.94, 0.35, -0.35, 0.94, 527.45, 125.39)">E</text><text class="cls-3" transform="matrix(0.8, 0.59, -0.59, 0.8, 605.69, 153.35)">R</text><text class="cls-3" transform="matrix(0.66, 0.75, -0.75, 0.66, 684.82, 215.62)">1</text><text class="cls-3" transform="translate(715.41 653.49) rotate(135.79)">S</text><text class="cls-3" transform="translate(652.75 717.49) rotate(152.46)">A</text><text class="cls-3" transform="translate(553.72 767.6) rotate(169.78)">N</text><text class="cls-3" transform="matrix(-1, -0.1, 0.1, -1, 465.68, 783.95)">D</text><text class="cls-3" transform="translate(372.45 774.45) rotate(-159.36)">E</text><text class="cls-3" transform="matrix(-0.8, -0.59, 0.59, -0.8, 294.21, 746.49)">R</text><text class="cls-3" transform="matrix(-0.66, -0.75, 0.75, -0.66, 215.08, 684.23)">1</text><g id="logo-superander"><path id="Shape" class="cls-4" d="M381.51,485.3a3.16,3.16,0,0,0,4.47,3.19l270.53-92.73a7.07,7.07,0,0,0,4.47-6.27V349.34a3.14,3.14,0,0,0-4.46-3.17L386,441.12a7.14,7.14,0,0,0-4.46,6.3Z"/><path id="Shape-2" data-name="Shape" class="cls-4" d="M561.15,507.58a5.64,5.64,0,0,0,4.69-5.41V446.53a3.18,3.18,0,0,0-4.48-3.2L240.8,553.08c-2.48.85-2.39,1.23.2.86Z"/><path id="Triangle" class="cls-4" d="M619.45,505.43c1.34,2.24,3.52,2.24,4.87,0l36.09-60.13c1.34-2.24.32-4.06-2.29-4.06H585.65c-2.61,0-3.64,1.82-2.29,4.06Z"/></g></g></svg>